<svg xmlns="http://www.w3.org/2000/svg" viewBox="0 0 1440 320"><path fill="#ee2a7b" fill-opacity="1" d="M0,96L20,96C40,96,80,96,120,85.3C160,75,200,53,240,90.7C280,128,320,224,360,224C400,224,440,128,480,106.7C520,85,560,139,600,133.3C640,128,680,64,720,58.7C760,53,800,107,840,149.3C880,192,920,224,960,202.7C1000,181,1040,107,1080,101.3C1120,96,1160,160,1200,202.7C1240,245,1280,267,1320,240C1360,213,1400,139,1420,101.3L1440,64L1440,320L1420,320C1400,320,1360,320,1320,320C1280,320,1240,320,1200,320C1160,320,1120,320,1080,320C1040,320,1000,320,960,320C920,320,880,320,840,320C800,320,760,320,720,320C680,320,640,320,600,320C560,320,520,320,480,320C440,320,400,320,360,320C320,320,280,320,240,320C200,320,160,320,120,320C80,320,40,320,20,320L0,320Z"></path></svg>