<svg width="1543" height="837" viewBox="0 0 1543 837" fill="none" xmlns="http://www.w3.org/2000/svg">
<path fill-rule="evenodd" clip-rule="evenodd" d="M578.677 200.426C567.661 200.426 560.088 201.193 555.958 202.73C551.828 204.266 548.534 206.791 546.074 210.307C543.616 213.824 542.387 217.96 542.387 222.715C542.387 230.738 544.871 236.482 549.837 239.949C554.803 243.417 563.876 245.151 577.054 245.151L590.036 245.151L590.036 200.426L578.677 200.426ZM694.241 190.046L711.237 190.046L711.237 206.703L694.241 206.703L694.241 190.046ZM669.312 190.046L686.309 190.046L686.309 206.703L669.312 206.703L669.312 190.046ZM587.571 159.995L631.471 159.995L631.471 377.843L590.036 377.843L590.036 285.58L586.245 285.58L537.296 377.843L492 377.843L543.566 280.99C529.755 276.053 519.424 268.772 512.569 259.145C505.712 249.52 502.284 237.548 502.284 223.232C502.284 209.608 505.388 197.81 511.597 187.838C517.805 177.867 526.009 170.732 536.207 166.438C546.407 162.143 563.528 159.995 587.571 159.995ZM1018.26 -4.14286e-05L1018.54 0.217501L1018.81 -4.13808e-05L1239.1 175.025L1238.81 175.392L1492 377.843L1372.43 377.843L1018.54 96.6642L664.638 377.843L631.471 377.843L631.471 308.041L645.051 297.223L644.384 297.223L644.384 218.68L661.38 218.68L661.38 284.212L670.108 277.26L669.312 277.26L669.312 218.68L686.309 218.68L686.309 263.743L694.241 257.44L694.241 218.68L711.237 218.68L711.237 243.937L719.169 237.634L719.169 178.068L711.237 178.068L694.241 178.068L686.309 178.068L669.312 178.068L661.38 178.068L644.384 178.068L644.384 190.046L661.38 190.046L661.38 206.703L644.384 206.703L644.384 159.354L644.384 159.352L694.241 159.352L711.237 159.352L750.895 159.352L750.895 178.068L736.165 178.068L736.165 224.13L1018.26 -4.14286e-05Z" fill="#EE2A7B"/>
<path d="M1417.37 836.865L1403.07 832.717C1401.57 832.295 1400.73 830.725 1401.15 829.225L1433.14 719.03C1433.56 717.53 1435.13 716.687 1436.63 717.108L1450.93 721.257C1452.43 721.678 1453.27 723.249 1452.85 724.749L1420.86 834.943C1420.41 836.443 1418.87 837.31 1417.37 836.865ZM1390.65 810.57L1400.85 799.696C1401.92 798.548 1401.85 796.72 1400.66 795.665L1379.43 776.987L1400.66 758.308C1401.85 757.254 1401.95 755.426 1400.85 754.278L1390.65 743.403C1389.6 742.278 1387.82 742.208 1386.67 743.286L1352.9 774.924C1351.7 776.026 1351.7 777.924 1352.9 779.026L1386.67 810.687C1387.82 811.765 1389.6 811.718 1390.65 810.57ZM1467.33 810.711L1501.1 779.049C1502.3 777.948 1502.3 776.049 1501.1 774.948L1467.33 743.263C1466.21 742.208 1464.43 742.255 1463.35 743.38L1453.15 754.254C1452.08 755.402 1452.15 757.23 1453.34 758.285L1474.57 776.987L1453.34 795.665C1452.15 796.72 1452.05 798.548 1453.15 799.696L1463.35 810.57C1464.4 811.718 1466.18 811.765 1467.33 810.711Z" fill="#EE2A7B"/>
<rect x="104.625" y="362.149" width="241.875" height="344.661" fill="white"/>
<path d="M439.47 401.951C425.418 376.231 253.05 270 224.976 270C196.903 270 24.4666 375.963 10.5023 401.951C-3.46197 427.939 -3.5395 639.874 10.5023 665.852C24.5441 691.83 196.932 797.803 224.976 797.803C253.021 797.803 425.418 691.706 439.46 665.852C453.502 639.998 453.521 427.722 439.47 401.951ZM283.091 697.005C279.215 697.005 243.447 660.131 246.267 657.121C247.11 656.224 252.333 655.595 263.274 655.234C263.274 628.195 263.846 584.527 264.185 566.25C264.185 564.188 263.758 562.714 263.758 560.219H186.301C186.301 567.539 185.855 597.537 187.629 635.349C187.851 640.029 186.097 641.534 182.066 641.472C172.249 641.472 162.423 641.359 152.597 641.39C148.624 641.39 146.908 639.813 147.034 635.091C147.926 600.619 149.941 548.499 146.889 415.857V412.589C137.518 412.228 131.016 411.558 130.163 410.692C127.333 407.682 163.634 370.808 167.462 370.808C171.29 370.808 207.359 407.693 204.548 410.692C203.705 411.589 196.893 412.228 188.297 412.589V415.847C185.952 442.392 186.359 497.893 185.749 524.49H263.526C263.526 519.799 263.904 488.677 262.363 438.268C262.266 434.773 263.284 432.939 266.443 432.908C277.17 432.825 287.908 432.774 298.645 432.846C301.998 432.846 303.074 434.619 303.006 438.392C299.44 635.586 302.347 621.824 302.347 655.224C310.942 655.585 318.647 656.255 319.49 657.121C322.281 660.121 286.91 697.005 283.072 697.005H283.091Z" fill="#EE2A7B"/>
<path d="M585.272 695L573.602 627.314H511.984L501.248 695H459.235L511.05 402.781H572.202L627.751 695H585.272ZM517.119 593.237H568L541.393 439.192L517.119 593.237ZM791.957 494.275H749.011V449.462C749.011 443.86 748.077 440.281 746.21 438.725C744.654 436.858 741.075 435.924 735.473 435.924H711.666C706.065 435.924 702.33 436.858 700.463 438.725C698.596 440.281 697.662 443.86 697.662 449.462V648.786C697.662 654.388 698.596 658.123 700.463 659.99C702.33 661.546 706.065 662.324 711.666 662.324H735.473C741.075 662.324 744.654 661.546 746.21 659.99C748.077 658.123 749.011 654.388 749.011 648.786V604.44H791.957V653.921C791.957 681.618 777.33 695.467 748.077 695.467H698.596C669.654 695.467 655.183 681.618 655.183 653.921V443.86C655.183 416.474 669.654 402.781 698.596 402.781H748.077C777.33 402.781 791.957 416.474 791.957 443.86V494.275ZM1078.36 660.923H1162.85V695H1035.88V402.781H1159.59V436.858H1078.36V526.951H1145.58V561.028H1078.36V660.923ZM1237.9 576.899V695H1195.89V402.781H1291.59C1320.53 402.781 1335 416.474 1335 443.86V535.353C1335 559.005 1324.57 572.542 1303.72 575.965L1349.94 695H1304.66L1260.78 576.899H1237.9ZM1237.9 436.858V543.289H1278.98C1284.58 543.289 1288.32 542.511 1290.19 540.955C1292.05 539.088 1292.99 535.353 1292.99 529.752V450.395C1292.99 444.793 1292.05 441.215 1290.19 439.659C1288.32 437.791 1284.58 436.858 1278.98 436.858H1237.9ZM1465 647.386V575.965C1465 570.364 1464.06 566.785 1462.19 565.229C1460.64 563.362 1457.06 562.428 1451.46 562.428H1416.91C1388.6 562.428 1374.44 548.579 1374.44 520.882V443.86C1374.44 416.474 1388.91 402.781 1417.85 402.781H1463.6C1492.54 402.781 1507.01 416.474 1507.01 443.86V486.806H1464.53V450.395C1464.53 444.793 1463.6 441.215 1461.73 439.659C1459.86 437.791 1456.13 436.858 1450.52 436.858H1430.92C1425.32 436.858 1421.58 437.791 1419.72 439.659C1417.85 441.215 1416.91 444.793 1416.91 450.395V515.281C1416.91 520.882 1417.85 524.617 1419.72 526.484C1421.58 528.04 1425.32 528.818 1430.92 528.818H1465C1493.63 528.818 1507.94 542.511 1507.94 569.897V653.921C1507.94 681.307 1493.31 695 1464.06 695H1418.78C1389.84 695 1375.37 681.307 1375.37 653.921V610.975H1417.85V647.386C1417.85 652.988 1418.78 656.722 1420.65 658.589C1422.52 660.145 1426.25 660.923 1431.85 660.923H1451.46C1457.06 660.923 1460.64 660.145 1462.19 658.589C1464.06 656.722 1465 652.988 1465 647.386Z" fill="white"/>
<path d="M805.237 320.4L884.437 508.8L805.837 696H864.637L940.837 508.8L863.437 320.4H805.237ZM998.437 696L998.437 320.4H944.437V696H998.437Z" fill="#EE2A7B"/>
</svg>
